<?xml version="1.0" standalone="no"?>
<!DOCTYPE svg PUBLIC "-//W3C//DTD SVG 20010904//EN"
 "http://www.w3.org/TR/2001/REC-SVG-20010904/DTD/svg10.dtd">
<svg version="1.0" xmlns="http://www.w3.org/2000/svg"
 width="500.000000pt" height="500.000000pt" viewBox="0 0 500.000000 500.000000"
 preserveAspectRatio="xMidYMid meet">
<metadata>
Created by potrace 1.11, written by Peter Selinger 2001-2013
</metadata>
<g transform="translate(0.000000,500.000000) scale(0.100000,-0.100000)"
fill="#000000" stroke="none">
<path d="M2827 4409 c-4 -30 -7 -88 -7 -129 -2 -152 -26 -352 -49 -397 -11
-23 -21 -47 -21 -53 0 -5 -4 -10 -9 -10 -5 0 -14 -13 -20 -30 -6 -16 -16 -44
-23 -61 -6 -17 -21 -46 -33 -63 -39 -57 -75 -201 -90 -350 -13 -140 -18 -155
-56 -156 -19 0 -44 -26 -32 -33 4 -2 20 -7 36 -11 24 -6 26 -9 17 -26 -6 -11
-18 -20 -28 -20 -43 -1 -49 -20 -56 -155 -12 -269 -28 -382 -49 -348 -4 6 -11
75 -16 154 -10 135 -12 145 -35 164 -21 17 -26 33 -33 95 l-8 75 -49 26 c-27
15 -66 30 -86 33 l-38 6 -7 62 -8 63 -88 78 c-99 87 -108 89 -164 37 -40 -38
-178 -140 -189 -140 -5 0 -6 26 -3 59 9 85 -2 92 -145 97 -115 4 -194 -1 -216
-15 -7 -4 -12 -18 -11 -32 4 -245 1 -574 -6 -568 -2 3 -12 34 -21 70 -20 80
-28 89 -74 89 -49 0 -53 12 -40 114 10 75 10 86 -10 136 -12 30 -27 61 -33 69
-8 10 -13 86 -15 238 -2 123 -7 242 -11 266 l-8 42 -11 -40 c-6 -23 -12 -115
-13 -205 0 -113 -4 -159 -11 -149 -7 10 -8 2 -5 -28 5 -45 4 -47 -76 -146 -61
-76 -90 -219 -102 -512 -6 -128 -5 -138 9 -121 9 11 16 27 16 35 0 9 9 43 19
76 10 33 22 87 26 120 9 88 15 115 26 115 5 0 9 -36 9 -80 0 -69 -2 -80 -17
-80 -17 -1 -17 -1 0 -11 20 -12 23 -39 5 -39 -9 0 -8 -3 2 -9 19 -13 29 -5 23
19 -3 11 0 20 6 20 6 0 11 -3 12 -7 2 -23 10 -57 14 -62 3 -2 5 12 5 32 0 19
6 38 13 40 9 4 9 6 0 6 -23 2 -15 48 10 56 l22 8 -22 4 c-21 4 -23 10 -23 69
0 57 2 64 20 64 11 0 20 5 20 10 0 6 -10 10 -22 10 -19 0 -20 2 -8 10 10 6 11
10 3 10 -7 0 -13 9 -13 20 0 11 -6 20 -13 20 -8 0 -13 13 -13 36 0 34 1 35 29
30 16 -3 34 -6 39 -6 5 0 9 -44 9 -102 -1 -145 13 -415 21 -423 13 -13 29 7
28 33 -5 66 1 245 7 239 3 -4 11 -3 17 3 8 6 12 0 14 -23 2 -31 1 -31 -14 -12
-15 19 -16 12 -11 -91 7 -120 12 -144 32 -144 12 0 31 61 26 88 -1 6 3 12 9
12 5 0 10 -12 11 -27 0 -23 2 -25 8 -9 7 18 8 18 24 -5 9 -13 17 -18 17 -11 0
6 -10 22 -21 33 -21 21 -22 53 -9 159 2 13 48 -90 61 -134 9 -32 22 -52 37
-59 14 -7 22 -19 23 -36 l0 -26 10 25 c6 15 8 60 4 114 -7 81 -6 88 10 83 9
-4 23 -7 31 -7 8 0 14 -10 14 -22 0 -13 5 -30 10 -38 7 -12 10 -8 11 15 0 17
3 24 6 18 11 -30 23 -9 23 42 0 51 2 55 24 55 20 0 25 -7 34 -47 9 -37 10 -9
6 127 -6 174 -6 176 16 177 21 2 21 1 16 -155 -6 -164 0 -256 16 -246 5 3 8
95 8 212 -1 114 -1 245 0 292 l2 85 14 -60 c11 -47 13 -108 9 -281 -6 -193 -4
-222 9 -233 9 -8 16 -20 16 -28 0 -8 5 -11 10 -8 6 4 10 68 10 158 0 84 5 189
12 235 l11 84 79 59 78 60 0 -33 c0 -18 -7 -45 -14 -60 -8 -16 -11 -28 -5 -28
5 0 9 -18 9 -40 0 -29 -4 -40 -15 -40 -19 0 -20 -19 -1 -26 26 -10 6 -44 -25
-44 -29 0 -29 0 -30 63 -1 68 -4 67 -14 -5 -11 -80 -25 -54 -18 32 4 56 3 80
-5 80 -7 0 -10 -12 -7 -32 4 -29 4 -30 -4 -8 -7 19 -9 7 -8 -45 1 -38 1 -109
-1 -157 -2 -73 -5 -87 -19 -91 -16 -4 -16 -5 -1 -6 9 0 20 -11 24 -23 l8 -23
7 25 c7 24 7 24 8 -5 1 -35 21 -73 21 -41 0 15 6 17 29 14 17 -2 28 -1 25 4
-3 4 -16 8 -30 8 -17 0 -24 5 -24 20 0 17 7 20 40 20 32 0 40 -4 40 -19 0 -10
3 -33 6 -50 6 -27 4 -31 -16 -31 -32 0 -22 -7 19 -13 25 -4 31 -3 22 6 -6 6
-11 33 -11 59 0 41 3 48 20 48 18 0 20 -7 20 -79 0 -44 5 -83 10 -86 6 -4 10
5 10 19 0 14 6 26 13 26 9 0 9 2 0 8 -8 5 -12 45 -12 125 l-1 117 29 0 c28 0
30 -2 35 -52 3 -29 8 -93 11 -142 2 -49 8 -92 11 -95 4 -3 4 53 0 124 -3 72
-7 202 -8 290 -1 88 -3 139 -5 113 -4 -46 -6 -48 -34 -48 l-29 0 -1 68 c-1 52
-3 60 -9 37 -4 -16 -8 -47 -9 -68 -1 -34 -4 -38 -23 -35 -21 3 -23 9 -26 65
-3 61 -2 63 25 69 15 3 33 13 40 21 11 14 16 13 41 -8 15 -13 41 -33 56 -44
16 -11 34 -25 41 -32 19 -18 29 -211 23 -440 -5 -178 -4 -193 12 -193 22 0 32
68 26 177 -2 49 -1 60 3 28 5 -40 9 -49 24 -47 10 2 21 -6 27 -20 6 -17 9 -19
9 -5 1 19 37 24 43 6 2 -7 9 -5 17 5 9 11 10 16 2 16 -7 0 -11 21 -11 55 0 54
0 55 -30 55 -28 0 -30 2 -30 39 0 29 5 41 18 44 9 3 -2 5 -25 6 l-42 1 -4 -47
c-2 -27 -4 1 -5 61 -2 83 1 107 11 104 6 -3 35 -13 64 -22 57 -19 61 -25 70
-108 4 -44 11 -63 28 -76 26 -21 34 -67 36 -206 1 -83 5 -107 26 -147 32 -65
64 -65 105 2 15 24 41 211 55 390 5 65 6 67 43 88 21 11 41 21 44 21 3 0 4
-17 1 -37 -2 -21 -7 -78 -11 -126 -3 -49 -8 -86 -10 -84 -3 2 -9 46 -14 98 -8
86 -9 81 -5 -56 3 -82 5 -165 5 -182 0 -56 17 -36 24 28 8 71 15 91 27 83 5
-3 9 -35 9 -72 0 -47 3 -63 10 -52 5 8 10 30 10 48 0 49 21 65 74 57 32 -5 46
-12 49 -26 6 -23 27 -25 27 -3 0 8 5 12 10 9 6 -3 10 -18 10 -33 0 -15 5 -34
11 -42 7 -11 9 4 7 53 -2 51 1 70 12 77 18 11 29 -5 31 -45 1 -29 1 -30 9 -5
8 24 8 24 9 3 1 -27 32 -93 43 -93 4 0 11 15 16 33 l8 32 7 -32 c6 -32 27 -47
27 -19 0 7 9 16 20 19 16 4 18 11 13 41 -5 33 -4 36 20 36 37 0 53 22 61 79 4
28 11 51 16 51 12 0 13 -79 2 -112 -9 -27 1 -121 11 -98 3 8 7 28 9 44 2 24 9
31 37 38 18 5 35 7 37 5 3 -2 5 -50 5 -105 l1 -101 23 17 c25 19 34 66 36 182
0 36 3 59 6 53 7 -18 23 -16 23 2 0 10 11 15 35 15 19 0 35 5 35 11 0 6 -15 9
-37 7 -35 -3 -37 -1 -37 27 0 27 3 31 39 36 l40 5 -35 5 c-34 4 -35 5 -40 59
-3 30 -3 67 -1 83 3 25 6 27 52 27 55 0 63 -8 55 -55 -5 -27 -12 -35 -34 -38
l-27 -4 27 -2 c19 -1 28 -7 31 -23 l4 -23 2 23 c2 38 21 24 21 -17 0 -31 -4
-40 -22 -46 l-23 -8 23 -4 c30 -6 33 -63 3 -63 -31 0 -35 -19 -6 -26 25 -6 27
-10 23 -55 -2 -30 1 -48 7 -46 6 2 11 25 13 50 l3 47 45 0 44 0 1 -47 1 -48
10 48 c9 40 14 47 34 47 19 0 24 -5 24 -26 0 -14 4 -23 10 -19 6 4 10 -9 10
-32 0 -21 5 -45 10 -53 8 -11 10 7 9 60 l-2 75 34 0 c30 0 34 -3 37 -27 5 -41
22 -34 23 10 1 59 17 8 18 -58 1 -30 8 -73 16 -95 13 -36 15 -38 21 -17 4 15
14 22 31 22 23 0 24 -2 17 -46 -5 -34 -4 -45 5 -40 6 4 11 16 11 26 0 14 8 20
33 22 23 2 31 8 29 19 -1 9 5 22 13 29 8 7 15 19 15 26 0 8 5 14 10 14 6 0 10
-30 10 -69 0 -62 2 -70 21 -76 29 -9 36 1 48 69 18 96 14 120 -19 156 -34 37
-58 36 -119 -6 -42 -28 -56 -31 -46 -6 8 18 18 78 55 315 20 132 20 138 3 167
-10 18 -26 30 -38 30 -12 0 -25 4 -30 9 -6 6 -29 6 -60 0 -34 -7 -85 -6 -158
2 -125 14 -340 8 -361 -10 -17 -15 -35 -85 -44 -177 l-7 -69 -60 -1 c-33 0
-65 -1 -72 -2 -21 -4 -60 -87 -66 -141 -4 -30 -11 -59 -17 -65 -5 -5 -10 -8
-10 -5 -1 2 -3 54 -6 114 -3 61 -7 116 -9 123 -3 6 -15 12 -29 12 -31 0 -36 8
-25 38 7 18 16 22 50 22 35 0 40 2 29 15 -7 8 -27 17 -46 21 -52 10 -57 27
-43 167 8 93 8 135 -1 177 -6 30 -13 105 -15 167 -2 82 -7 118 -19 135 -9 12
-16 37 -16 56 0 18 -5 43 -12 55 -8 15 -12 104 -14 283 -1 147 -6 269 -11 279
-8 13 -11 5 -16 -36z m-7 -641 c24 -39 24 -101 0 -106 -12 -2 -16 6 -16 34 0
23 -6 41 -18 49 -12 9 -16 20 -11 34 9 29 22 26 45 -11z m-38 -84 c-2 -11 -9
-25 -15 -33 -6 -7 -16 -23 -22 -35 -7 -11 -17 -20 -23 -18 -7 1 -12 -4 -12
-12 0 -8 -5 -18 -11 -21 -19 -12 2 69 22 87 10 9 19 28 19 42 0 22 3 24 23 17
14 -6 21 -15 19 -27z m36 -106 c-2 -12 -8 -23 -15 -25 -6 -3 -10 4 -8 14 2 10
4 21 4 26 1 4 6 7 12 7 6 0 9 -10 7 -22z m-132 -230 c-9 -138 -7 -132 -29
-140 -20 -9 -14 -28 9 -28 18 0 18 -16 -1 -24 -22 -8 -35 25 -30 75 7 67 26
202 30 217 3 6 10 12 16 12 9 0 10 -29 5 -112z m114 97 c0 -8 -7 -15 -15 -15
-8 0 -15 -8 -15 -19 0 -11 -9 -21 -22 -25 -36 -9 -38 -8 -38 28 0 28 4 35 23
39 48 9 67 7 67 -8z m-85 -115 c3 -5 1 -10 -4 -10 -6 0 -11 5 -11 10 0 6 2 10
4 10 3 0 8 -4 11 -10z m52 4 c-3 -3 -12 -4 -19 -1 -8 3 -5 6 6 6 11 1 17 -2
13 -5z m-1319 -19 c17 -5 22 -14 22 -40 0 -18 -3 -40 -6 -49 -12 -32 -24 -15
-24 34 0 28 -4 50 -10 50 -6 0 -10 -35 -10 -84 0 -50 -4 -88 -11 -92 -8 -4 -8
-9 0 -17 19 -19 13 -47 -9 -47 -23 0 -24 8 -13 163 5 83 8 97 22 93 9 -2 26
-7 39 -11z m82 -49 c0 -87 -11 -136 -31 -136 -14 0 -19 7 -19 30 0 17 5 30 12
30 9 0 9 3 0 12 -7 7 -12 34 -12 60 0 45 2 48 25 48 23 0 25 -4 25 -44z m1263
37 c-7 -2 -21 -2 -30 0 -10 3 -4 5 12 5 17 0 24 -2 18 -5z m-1206 -70 c-4 -38
-7 -78 -7 -90 0 -17 -6 -23 -21 -23 -21 0 -21 3 -15 83 3 45 6 85 6 90 0 4 10
7 21 7 21 0 22 -3 16 -67z m1209 30 c-10 -10 -19 5 -10 18 6 11 8 11 12 0 2
-7 1 -15 -2 -18z m-61 7 c17 -7 17 -9 3 -9 -29 -1 -20 -19 13 -26 37 -8 35
-10 -13 -19 l-38 -7 0 36 c0 37 3 39 35 25z m894 -86 c2 -2 -1 -9 -7 -16 -9
-11 -25 -66 -46 -160 -6 -25 -10 -28 -51 -28 -43 0 -45 1 -45 30 0 16 7 33 16
38 10 5 12 12 6 15 -5 4 -7 27 -4 53 6 58 -12 53 -22 -6 -3 -22 -11 -40 -17
-40 -9 0 -6 44 8 93 2 9 0 17 -6 17 -5 0 -13 -24 -18 -52 l-8 -53 -53 -3 c-50
-3 -52 -2 -52 23 0 14 6 28 14 31 8 3 17 15 21 27 4 12 8 25 10 30 1 4 3 10 4
13 1 7 243 -4 250 -12z m-2169 -19 c0 -14 -4 -25 -10 -25 -5 0 -10 11 -10 25
0 14 5 25 10 25 6 0 10 -11 10 -25z m2199 -7 c0 -28 -2 -30 -9 -13 -12 28 -12
45 0 45 6 0 10 -15 9 -32z m171 -5 c-5 -21 -14 -87 -20 -148 -19 -163 -34
-159 -26 8 4 85 3 137 -3 137 -13 0 -18 -22 -26 -110 -7 -77 -22 -161 -24
-125 0 11 6 70 13 130 8 61 12 112 10 115 -12 12 -23 -33 -35 -142 -12 -115
-13 -118 -36 -118 l-25 0 8 113 c5 61 8 127 8 145 l-1 32 83 0 82 0 -8 -37z
m-1045 17 c3 -5 1 -10 -4 -10 -6 0 -11 5 -11 10 0 6 2 10 4 10 3 0 8 -4 11
-10z m-875 -43 c0 -15 -9 -28 -22 -35 l-23 -11 24 0 c17 -1 22 -5 17 -17 -3
-9 -6 -29 -6 -45 0 -23 -4 -29 -22 -29 -19 0 -20 2 -8 10 13 8 13 10 -2 10
-15 0 -17 7 -14 43 2 23 4 54 5 70 1 22 6 27 26 27 20 0 25 -5 25 -23z m70
-12 c0 -20 -5 -25 -25 -25 -20 0 -25 5 -25 25 0 20 5 25 25 25 20 0 25 -5 25
-25z m1660 -60 c0 -70 -1 -75 -21 -75 -20 0 -21 4 -15 50 7 53 22 100 31 100
3 0 5 -34 5 -75z m-961 -27 c-1 -46 -4 -69 -7 -53 -6 29 -6 29 -12 -10 -5 -29
-8 -16 -9 53 -1 76 2 92 14 92 12 0 15 -15 14 -82z m-1219 51 c0 -11 -4 -17
-10 -14 -5 3 -10 13 -10 21 0 8 5 14 10 14 6 0 10 -9 10 -21z m58 -7 c3 -23
-12 -29 -36 -14 -17 12 -4 44 17 40 9 -2 17 -13 19 -26z m1244 -2 c27 0 38 -4
38 -15 0 -11 -12 -15 -50 -15 -48 0 -50 1 -50 27 0 21 3 24 12 15 7 -7 29 -12
50 -12z m-782 -35 c0 -43 -1 -45 -30 -45 -29 0 -30 2 -30 45 0 43 1 45 30 45
29 0 30 -2 30 -45z m870 9 c0 -8 -7 -14 -15 -14 -10 0 -15 10 -15 26 0 22 2
25 15 14 8 -7 15 -19 15 -26z m-1858 -19 c-3 -32 -8 -45 -19 -45 -12 0 -14 8
-8 37 8 42 13 53 23 53 4 0 6 -20 4 -45z m428 5 c0 -21 -5 -30 -17 -31 -16 -1
-16 -2 -2 -6 19 -5 32 -40 18 -49 -19 -11 -49 7 -49 30 0 52 12 86 31 86 14 0
19 -7 19 -30z m40 -5 c0 -14 -4 -25 -10 -25 -5 0 -10 11 -10 25 0 14 5 25 10
25 6 0 10 -11 10 -25z m60 -34 c0 -25 3 -63 6 -83 6 -36 5 -38 -20 -38 -25 0
-26 2 -28 68 0 37 -2 74 -3 82 -2 23 3 29 25 23 16 -4 20 -14 20 -52z m1942
24 c-2 -19 -8 -35 -13 -35 -5 0 -9 16 -9 35 0 22 5 35 13 35 9 0 12 -11 9 -35z
m-734 -16 c-19 -13 -28 -11 -28 5 0 9 7 12 21 9 16 -4 17 -8 7 -14z m-978 -21
c0 -13 -5 -30 -10 -38 -7 -11 -10 -5 -10 23 0 20 5 37 10 37 6 0 10 -10 10
-22z m84 -11 c-1 -12 -3 -25 -3 -29 -1 -5 -17 -8 -36 -8 -32 0 -35 3 -35 28 0
37 3 39 43 34 27 -3 33 -8 31 -25z m-819 -57 c0 -61 -3 -80 -14 -80 -11 0 -12
10 -7 46 3 26 6 62 6 80 0 19 3 34 8 34 4 0 7 -36 7 -80z m442 38 c-3 -7 -5
-2 -5 12 0 14 2 19 5 13 2 -7 2 -19 0 -25z m443 12 c0 -15 -7 -20 -25 -20 -18
0 -25 5 -25 20 0 15 7 20 25 20 18 0 25 -5 25 -20z m-915 0 c3 -5 -1 -10 -9
-10 -9 0 -16 5 -16 10 0 6 4 10 9 10 6 0 13 -4 16 -10z m2579 -27 c-10 -42
-12 -43 -55 -43 -38 0 -39 1 -39 35 l0 35 50 0 c50 0 50 0 44 -27z m74 0 c-2
-22 -9 -29 -32 -31 -23 -3 -28 0 -22 13 3 9 6 23 6 31 0 8 10 14 26 14 22 0
25 -4 22 -27z m-1476 -50 c-9 -27 -20 -11 -17 25 2 20 4 39 5 42 5 10 16 -55
12 -67z m698 47 c0 -5 -5 -10 -11 -10 -5 0 -7 5 -4 10 3 6 8 10 11 10 2 0 4
-4 4 -10z m-1446 -6 c23 -9 20 -24 -4 -24 -11 0 -20 -4 -20 -9 0 -5 9 -13 20
-16 15 -5 20 -15 20 -45 0 -39 0 -39 -30 -29 -29 11 -30 13 -30 70 0 61 6 68
44 53z m486 -28 c0 -54 -30 -57 -43 -5 -8 30 -2 39 25 39 14 0 18 -8 18 -34z
m726 -84 c-14 -13 -18 12 -10 65 l9 58 3 -59 c2 -32 1 -61 -2 -64z m-886 73
c0 -46 -15 -46 -16 0 0 19 3 35 8 35 4 0 8 -16 8 -35z m100 0 c0 -34 -1 -35
-40 -35 -39 0 -40 1 -40 35 0 34 1 35 40 35 39 0 40 -1 40 -35z m817 13 c-3
-8 -6 -5 -6 6 -1 11 2 17 5 13 3 -3 4 -12 1 -19z m143 -8 c0 -5 -20 -10 -45
-10 -25 0 -45 5 -45 10 0 6 20 10 45 10 25 0 45 -4 45 -10z m46 -28 c-11 -11
-16 -12 -16 -4 0 18 24 43 29 30 2 -5 -4 -17 -13 -26z m364 -38 c0 -62 -1 -64
-25 -64 -29 0 -36 29 -7 31 16 1 16 2 0 6 -23 6 -24 60 -2 84 25 28 34 14 34
-57z m-521 -1 c1 -13 -3 -23 -9 -23 -5 0 -10 19 -9 43 0 32 2 37 9 22 5 -11 9
-30 9 -42z m-1467 -55 c-2 -43 -8 -78 -13 -78 -10 0 -12 139 -3 165 13 32 20
-7 16 -87z m2338 67 c0 -35 0 -35 -45 -35 -43 0 -45 1 -45 29 0 30 6 34 63 39
25 2 27 -1 27 -33z m70 0 c0 -31 -3 -35 -25 -35 -22 0 -25 4 -25 35 0 31 3 35
25 35 22 0 25 -4 25 -35z m80 -5 c0 -22 -4 -40 -9 -40 -28 0 -41 14 -41 46 0
30 3 34 25 34 23 0 25 -4 25 -40z m-1542 -16 c0 -58 -22 -55 -25 4 -2 31 1 42
11 42 10 0 14 -13 14 -46z m52 12 c0 -19 3 -42 6 -51 5 -13 2 -16 -12 -13 -12
2 -21 16 -26 38 -9 42 -4 60 17 60 10 0 15 -10 15 -34z m568 27 c-10 -2 -26
-2 -35 0 -10 3 -2 5 17 5 19 0 27 -2 18 -5z m943 -46 c-13 -13 -15 11 -4 40 7
16 8 15 11 -6 2 -13 -1 -28 -7 -34z m-956 24 c28 -6 28 -7 8 -13 -33 -9 -29
-38 5 -39 23 -2 24 -2 5 -6 -13 -2 -23 -11 -23 -19 0 -16 -8 -17 -62 -8 -28 5
-38 11 -38 25 0 11 5 19 10 19 6 0 10 -7 10 -15 0 -8 5 -15 10 -15 6 0 9 6 8
13 -2 7 7 11 22 10 25 -2 25 -2 -2 9 -35 15 -38 49 -5 47 12 -1 36 -4 52 -8z
m-1763 -46 c-5 -28 -22 -24 -22 6 0 10 6 19 14 19 9 0 12 -8 8 -25z m1618 -11
c0 -8 -4 -14 -10 -14 -5 0 -10 9 -10 21 0 11 5 17 10 14 6 -3 10 -13 10 -21z
m-1463 -96 c-2 -18 -4 -6 -4 27 0 33 2 48 4 33 2 -15 2 -42 0 -60z m1643 57
c0 -8 -4 -15 -10 -15 -5 0 -10 7 -10 15 0 8 5 15 10 15 6 0 10 -7 10 -15z
m1178 -48 c2 -12 -3 -17 -18 -17 -17 0 -20 -4 -15 -20 5 -14 2 -20 -9 -20 -9
0 -16 -7 -16 -15 0 -17 -9 -19 -30 -5 -11 7 -11 10 -2 10 7 0 10 4 7 10 -7 12
12 50 34 67 21 17 45 12 49 -10z"/>
<path d="M2051 2967 c0 -143 2 -216 9 -212 12 7 12 278 0 370 -5 41 -8 -9 -9
-158z"/>
<path d="M2200 2690 l-45 -7 47 -1 c26 -1 50 3 53 8 3 6 3 9 -2 8 -4 0 -28 -4
-53 -8z"/>
<path d="M933 2657 c-9 -15 1 -16 27 -2 l25 14 -23 -2 c-13 -1 -26 -5 -29 -10z"/>
<path d="M2881 2379 c-1 -26 -4 -62 -7 -80 -5 -33 -5 -33 21 12 15 26 38 52
52 58 34 16 70 14 77 -5 3 -9 6 -98 6 -199 0 -191 -1 -197 -45 -208 -11 -2 25
-5 80 -5 55 0 89 3 75 7 l-25 7 -3 207 -2 207 36 0 c42 0 94 -45 94 -81 0 -49
13 -5 17 58 4 56 3 66 -8 56 -9 -10 -61 -13 -185 -13 -129 0 -174 3 -177 13
-3 6 -6 -9 -6 -34z"/>
<path d="M3729 2397 c-64 -24 -103 -52 -134 -96 -25 -36 -30 -54 -33 -114 -3
-63 0 -79 25 -127 46 -91 131 -131 231 -111 102 20 170 86 193 185 10 44 9 62
-5 109 -18 61 -61 119 -107 142 -41 22 -128 28 -170 12z m142 -57 c75 -83 81
-263 11 -341 -34 -38 -94 -49 -140 -25 -103 53 -137 279 -56 375 28 33 51 41
109 35 31 -3 48 -13 76 -44z"/>
<path d="M553 2388 l27 -10 -2 -206 -3 -206 -25 -7 c-14 -4 52 -7 145 -6 l170
2 3 65 3 65 -18 -34 c-28 -54 -65 -75 -131 -76 l-57 0 -3 203 c-2 202 -2 202
20 212 16 6 -3 9 -67 9 -72 -1 -85 -3 -62 -11z"/>
<path d="M936 2393 c12 -2 25 -14 28 -26 8 -32 7 -380 -2 -393 -4 -7 -16 -14
-27 -17 -11 -2 21 -5 70 -4 50 0 80 2 69 4 -12 2 -25 14 -28 26 -3 12 -6 101
-6 198 0 178 4 199 40 212 8 3 -25 5 -75 5 -49 0 -80 -3 -69 -5z"/>
<path d="M1170 2387 l25 -13 0 -204 0 -204 -25 -7 c-14 -4 29 -7 95 -8 96 -1
127 3 154 17 47 23 73 62 75 109 1 50 -26 91 -72 111 l-37 15 33 33 c25 25 32
40 32 72 0 75 -37 92 -193 92 -97 0 -109 -2 -87 -13z m194 -29 c32 -46 10
-139 -36 -152 -47 -12 -48 -11 -48 84 l0 90 34 0 c25 0 39 -7 50 -22z m21
-204 c31 -34 40 -92 21 -137 -16 -39 -41 -51 -92 -45 l-29 3 -3 103 -3 102 41
0 c31 0 47 -6 65 -26z"/>
<path d="M1580 2391 l25 -7 0 -209 0 -209 -25 -7 c-14 -4 48 -7 138 -8 l162
-1 0 58 0 57 -20 -32 c-25 -42 -71 -65 -123 -61 l-42 3 -3 101 -3 100 57 -6
c43 -5 60 -12 74 -30 18 -23 18 -23 16 38 l-1 61 -22 -21 c-14 -13 -41 -23
-73 -26 l-50 -5 0 81 c0 102 4 112 45 112 51 0 83 -16 105 -52 l20 -33 0 53 0
52 -152 -1 c-84 -1 -142 -4 -128 -8z"/>
<path d="M1960 2391 l25 -7 0 -209 0 -209 -25 -7 c-14 -4 17 -7 70 -7 53 0 84
3 70 7 -24 7 -25 9 -28 114 l-3 107 25 0 c20 0 32 -12 61 -62 20 -35 55 -87
76 -115 l40 -53 147 1 c81 1 136 4 122 8 -14 4 -31 18 -39 32 -13 24 -12 32
17 100 l31 74 61 1 61 2 38 -77 c55 -109 57 -119 29 -130 -17 -7 0 -10 64 -10
l87 -1 -23 23 c-13 13 -68 114 -121 225 -54 112 -103 201 -108 199 -5 -1 -22
-34 -39 -72 -154 -353 -160 -365 -205 -365 -31 0 -95 65 -156 158 l-48 73 30
35 c25 27 31 44 31 79 0 79 -35 95 -198 94 -64 -1 -106 -4 -92 -8z m197 -23
c19 -15 26 -92 13 -132 -9 -29 -18 -37 -45 -42 -19 -3 -38 -3 -44 1 -7 3 -11
42 -11 90 0 69 3 86 18 94 18 11 48 6 69 -11z m480 -128 l22 -50 -49 0 -49 0
21 50 c11 28 23 50 27 50 3 0 16 -23 28 -50z"/>
<path d="M3338 2390 l22 -10 -2 -207 -3 -207 -25 -7 c-14 -4 17 -7 70 -7 53 0
84 3 70 7 l-25 7 0 204 0 204 25 13 c22 11 14 13 -65 12 -65 0 -84 -3 -67 -9z"/>
<path d="M4101 2377 l34 -23 2 -164 c3 -178 -2 -204 -47 -227 -22 -11 -17 -13
47 -13 l72 0 -24 25 c-24 24 -25 27 -25 182 l1 158 27 -31 c15 -17 88 -103
162 -190 l135 -159 5 213 c5 210 5 214 29 233 l23 19 -68 -1 c-52 0 -63 -3
-46 -9 35 -14 43 -52 40 -186 l-3 -124 -133 160 -134 160 -65 0 -66 0 34 -23z"/>
<path d="M3850 1861 c-5 -11 -10 -26 -10 -33 0 -27 -49 -104 -76 -119 -25 -13
-29 -23 -32 -62 -4 -55 -15 -59 -77 -27 -22 11 -43 20 -47 20 -4 0 -8 -9 -8
-20 0 -11 -4 -20 -10 -20 -20 0 -31 -39 -18 -62 22 -40 81 -66 105 -47 20 17
40 4 64 -42 24 -49 53 -76 89 -85 14 -3 53 -22 88 -40 64 -35 82 -40 82 -26 0
8 -4 13 -77 95 -24 25 -43 56 -43 67 0 17 7 20 39 20 22 0 43 -5 46 -10 11
-17 25 -1 25 29 0 37 -17 51 -62 51 -57 0 -67 27 -33 92 29 56 29 81 -1 186
-16 56 -27 64 -44 33z m45 -119 c5 -40 3 -58 -8 -70 -59 -68 -55 -132 8 -132
41 0 75 -15 75 -33 0 -15 -171 -14 -233 1 -23 6 -53 10 -67 9 -13 -1 -25 3
-25 10 0 6 -3 15 -7 19 -5 4 -8 0 -8 -9 0 -24 -13 -21 -26 7 -7 14 -8 30 -3
38 5 7 9 9 9 5 0 -4 7 -4 17 1 10 6 27 5 47 -3 17 -7 47 -16 66 -20 29 -6 33
-5 23 6 -7 7 -13 32 -13 55 0 37 4 45 27 56 15 7 34 26 41 41 8 16 20 31 28
34 9 3 14 21 15 52 l1 46 13 -30 c7 -16 16 -54 20 -83z m-71 -308 c4 -16 21
-31 51 -45 25 -12 48 -26 51 -31 4 -5 -8 -3 -24 6 -17 9 -40 16 -52 16 -11 0
-20 5 -20 10 0 6 -7 10 -16 10 -11 0 -14 6 -9 20 4 11 2 20 -4 20 -6 0 -11 7
-11 15 0 23 27 6 34 -21z m40 -4 c8 -16 13 -30 11 -30 -10 0 -35 33 -35 46 0
22 7 17 24 -16z"/>
<path d="M3848 1691 c-16 -9 -28 -22 -28 -28 0 -7 -4 -13 -9 -13 -15 0 -23
-38 -12 -57 9 -15 10 -14 11 10 0 21 11 39 37 62 42 37 42 50 1 26z"/>
<path d="M4074 1746 c-3 -8 -1 -30 5 -49 7 -19 9 -41 5 -50 -3 -9 4 -29 16
-45 12 -16 23 -46 25 -66 2 -21 9 -44 15 -52 16 -18 -9 -28 -67 -29 -24 0 -43
-4 -43 -9 0 -4 12 -22 26 -40 l27 -31 111 -2 c61 -1 113 -2 116 -2 3 -1 18
-13 33 -27 16 -14 31 -24 34 -21 3 3 -2 26 -10 51 l-15 45 49 10 c49 11 129
56 129 72 0 14 -38 10 -72 -7 -17 -9 -43 -14 -57 -11 -14 3 -44 -1 -66 -9 -22
-7 -43 -14 -46 -14 -9 0 -18 26 -25 69 -8 53 -32 96 -61 112 -14 7 -47 38 -74
67 -37 40 -50 50 -55 38z m166 -210 c6 -28 13 -61 16 -73 2 -12 20 -31 39 -43
36 -22 50 -48 18 -32 -10 5 -59 8 -110 8 -50 -1 -86 2 -80 6 8 5 6 8 -5 8 -10
0 -18 4 -18 9 0 11 17 17 74 27 l40 7 -24 19 c-13 10 -24 31 -25 48 -2 15 -13
43 -25 60 -12 17 -26 46 -31 63 -4 18 -11 43 -15 56 -5 17 12 5 64 -44 61 -58
72 -74 82 -119z m216 -65 c-4 -5 -25 -12 -49 -16 -23 -4 -50 -11 -59 -16 -10
-6 -19 -5 -23 1 -9 14 22 23 128 39 5 0 6 -3 3 -8z"/>
<path d="M4130 1635 c0 -3 13 -23 29 -43 16 -20 31 -50 33 -66 2 -16 8 -31 14
-33 14 -5 3 63 -15 92 -14 21 -61 60 -61 50z"/>
<path d="M2660 1719 c-118 -23 -260 -131 -315 -239 -40 -79 -55 -143 -55 -240
0 -326 239 -539 552 -491 74 11 152 34 170 50 8 7 31 202 26 227 -2 11 -18
-11 -42 -59 -63 -121 -152 -197 -231 -196 -86 0 -185 70 -238 167 -84 154
-100 439 -33 587 50 111 125 164 231 165 113 0 203 -65 263 -192 15 -31 30
-57 34 -57 7 -1 3 107 -8 197 -4 33 -11 45 -32 56 -63 32 -221 45 -322 25z"/>
<path d="M540 1693 c19 -8 52 -31 73 -51 l37 -36 0 -358 c0 -389 -2 -404 -55
-446 -15 -12 -36 -22 -46 -22 -10 0 -21 -5 -24 -10 -4 -6 43 -10 134 -10 87 0
141 4 141 10 0 6 -8 10 -18 10 -20 0 -51 30 -73 70 -21 38 -27 702 -6 680 14
-15 466 -613 557 -737 25 -34 48 -62 52 -62 4 -1 9 194 10 432 3 492 3 488 81
526 l42 20 -140 0 c-128 -1 -137 -2 -109 -14 40 -18 72 -57 79 -99 3 -17 5
-150 3 -296 l-3 -265 -215 290 c-119 160 -231 311 -248 338 l-33 47 -137 -1
c-131 -1 -135 -1 -102 -16z"/>
<path d="M1470 1692 c47 -32 75 -72 192 -284 l118 -212 0 -188 c0 -175 -1
-189 -20 -208 -11 -11 -33 -20 -50 -20 -16 0 -30 -4 -30 -10 0 -6 63 -10 170
-10 107 0 170 4 170 10 0 6 -13 10 -28 10 -58 0 -62 15 -62 245 l0 208 81 156
c104 201 152 264 229 300 l35 16 -72 3 c-40 2 -106 2 -145 0 -64 -3 -70 -4
-48 -15 73 -32 67 -90 -30 -283 -39 -79 -75 -139 -79 -134 -5 5 -30 50 -56 99
-26 50 -66 122 -88 160 -21 39 -42 87 -44 107 -5 33 -3 39 21 48 14 5 26 12
26 15 0 3 -71 5 -157 4 -152 0 -157 -1 -133 -17z"/>
<path d="M3511 1501 c-14 -14 -20 -29 -16 -44 3 -16 -6 -34 -35 -66 -22 -24
-43 -41 -46 -38 -9 9 21 48 47 61 12 6 24 17 27 24 8 24 -62 -23 -83 -56 -11
-17 -26 -31 -33 -32 -7 0 -33 18 -57 41 -41 38 -51 42 -120 50 -41 4 -91 13
-112 18 -20 6 -39 8 -41 6 -9 -8 28 -53 48 -60 11 -3 20 -13 20 -21 0 -7 21
-24 46 -35 25 -12 48 -28 51 -36 3 -8 17 -19 30 -24 20 -7 22 -12 13 -28 -5
-11 -24 -28 -40 -38 -37 -21 -39 -43 -5 -43 14 0 34 -5 44 -12 17 -10 26 -6
65 30 25 23 50 42 55 42 5 0 24 12 41 26 26 23 37 26 78 21 l47 -5 -43 37 -42
37 34 33 c32 31 66 114 53 127 -3 3 -15 -4 -26 -15z m-336 -76 c71 -8 88 -16
138 -63 30 -29 48 -38 90 -42 48 -6 50 -7 27 -17 -14 -6 -32 -18 -39 -27 -7
-9 -19 -16 -27 -16 -7 0 -29 -14 -49 -31 -19 -17 -35 -26 -35 -20 0 6 -7 8
-15 5 -27 -11 -16 14 23 50 l37 36 -29 0 c-17 0 -35 9 -46 23 -10 13 -36 29
-57 35 -41 12 -135 88 -98 79 11 -3 47 -8 80 -12z"/>
<path d="M3150 1397 c0 -3 25 -13 55 -22 32 -9 59 -23 65 -35 7 -13 16 -17 27
-13 13 5 14 8 3 11 -7 3 -23 16 -35 29 -14 18 -34 27 -68 30 -26 3 -47 3 -47
0z"/>
<path d="M2814 1475 c4 -22 9 -68 12 -102 5 -52 4 -64 -10 -69 -22 -9 -20 -25
9 -68 l25 -37 -26 -9 c-14 -6 -40 -10 -59 -10 -36 0 -56 -17 -35 -30 9 -5 9
-13 1 -27 -14 -26 4 -51 44 -62 34 -9 71 4 95 32 14 17 17 17 55 -4 63 -33 93
-39 144 -29 25 5 72 12 104 16 31 3 57 9 57 13 0 8 -68 31 -130 46 -14 4 -34
13 -45 21 -20 15 -20 16 9 38 16 14 36 21 47 19 17 -5 18 -2 8 25 -14 40 -42
49 -85 26 -49 -27 -68 -12 -74 59 -6 61 -17 77 -104 150 l-49 41 7 -39z m87
-69 c35 -36 38 -44 41 -105 l3 -66 35 1 c19 1 50 7 67 15 22 9 36 10 43 3 13
-13 -130 -108 -187 -123 -23 -7 -46 -18 -50 -25 -12 -21 -65 -28 -86 -12 -17
13 -17 16 -3 38 11 17 33 28 76 37 33 7 60 17 60 22 0 5 -6 9 -14 9 -8 0 -24
14 -36 30 -21 30 -21 32 -5 66 9 19 13 43 10 54 -3 11 -1 28 4 39 8 13 8 22 1
26 -6 3 -17 21 -26 38 l-17 32 23 -20 c13 -11 40 -38 61 -59z m146 -276 c14
-11 42 -20 62 -21 l36 0 -45 -15 c-57 -17 -87 -18 -97 -1 -4 8 -17 19 -28 25
-20 11 -20 11 1 12 12 0 27 -7 34 -15 7 -8 24 -15 39 -15 26 0 25 1 -6 16 -18
9 -33 20 -33 25 0 14 10 11 37 -11z"/>
<path d="M2900 1340 c0 -11 -4 -20 -8 -20 -10 0 -8 -62 2 -78 4 -7 15 -12 24
-12 15 1 15 2 -1 11 -13 8 -17 19 -13 47 2 20 8 45 11 55 4 10 3 17 -4 17 -6
0 -11 -9 -11 -20z"/>
<path d="M2800 1099 c0 -5 5 -7 10 -4 6 3 10 8 10 11 0 2 -4 4 -10 4 -5 0 -10
-5 -10 -11z"/>
<path d="M4605 1447 c-84 -92 -95 -105 -95 -112 0 -3 -6 -12 -12 -19 -7 -8
-23 -25 -35 -39 -22 -26 -44 -26 -112 0 -45 18 -79 -47 -43 -80 9 -9 37 -17
62 -19 42 -3 45 -5 42 -29 -2 -19 6 -35 28 -57 27 -28 31 -39 34 -99 3 -71 27
-133 51 -133 9 0 18 21 24 58 6 31 16 71 21 88 13 41 13 87 -2 102 -6 6 -9 15
-5 18 9 10 54 -4 72 -22 23 -23 28 -12 15 35 -6 24 -20 45 -33 52 -12 7 -23
13 -25 14 -2 2 8 20 23 40 21 32 25 49 25 112 0 46 6 85 15 103 25 49 0 42
-50 -13z m13 -86 c-3 -55 -9 -76 -32 -110 -31 -44 -29 -52 15 -75 41 -20 34
-34 -13 -25 -24 4 -46 8 -50 9 -13 0 -9 -35 8 -68 14 -29 14 -38 -3 -107 -10
-41 -22 -73 -28 -72 -17 6 -27 68 -16 99 9 26 6 35 -25 80 -22 33 -32 58 -29
69 8 23 -27 39 -84 39 -34 0 -37 3 -39 29 -2 31 15 52 27 32 4 -6 31 -14 59
-18 29 -3 52 -10 52 -14 0 -5 7 -6 15 -3 8 4 15 12 15 20 0 7 14 29 30 47 17
19 30 40 30 46 0 15 53 90 64 91 4 0 7 -31 4 -69z"/>
<path d="M4561 1310 c-10 -22 -15 -40 -10 -40 5 0 9 2 9 4 0 2 7 20 15 40 21
49 10 46 -14 -4z"/>
<path d="M4420 1210 c0 -5 5 -10 11 -10 5 0 7 5 4 10 -3 6 -8 10 -11 10 -2 0
-4 -4 -4 -10z"/>
<path d="M4485 1137 c-4 -10 -5 -21 -1 -24 10 -10 18 4 13 24 -4 17 -4 17 -12
0z"/>
<path d="M4517 1033 c-4 -3 -7 -13 -7 -22 1 -13 3 -13 11 2 11 19 8 33 -4 20z"/>
<path d="M3606 1333 c-8 -32 -25 -156 -29 -221 -2 -34 -6 -64 -8 -65 -19 -13
-66 -27 -91 -27 -21 0 -29 -4 -25 -13 3 -8 1 -20 -3 -27 -9 -15 3 -30 39 -49
20 -11 26 -10 45 8 28 26 63 27 71 2 3 -12 22 -23 50 -30 36 -9 48 -18 64 -49
11 -20 29 -45 40 -54 20 -17 75 -48 86 -48 10 0 5 35 -10 64 -8 16 -22 52 -30
80 -19 62 -23 69 -55 86 l-25 13 30 13 c17 7 41 10 55 7 l25 -6 -29 32 c-22
23 -39 31 -63 31 -33 0 -33 1 -33 46 0 35 -9 60 -40 111 -22 37 -40 77 -40 90
0 27 -16 31 -24 6z m45 -105 c23 -37 35 -70 39 -108 l5 -55 37 0 c53 0 55 -10
4 -31 -25 -11 -46 -22 -46 -26 0 -4 18 -20 40 -34 23 -16 43 -38 47 -53 3 -14
14 -45 24 -68 21 -51 12 -61 -26 -29 -23 20 -26 28 -20 57 4 23 3 29 -3 20 -8
-11 -14 -10 -33 8 -12 11 -31 21 -41 21 -11 0 -30 11 -44 25 -31 31 -70 32
-101 3 -22 -21 -23 -21 -43 -3 -32 29 -26 50 16 52 20 1 44 9 54 18 10 9 23
14 28 11 5 -3 18 1 28 9 12 9 13 13 4 10 -13 -4 -15 7 -13 67 1 40 2 92 3 116
0 23 2 42 4 42 2 0 19 -24 37 -52z"/>
<path d="M3632 1190 c0 -14 2 -19 5 -12 2 6 2 18 0 25 -3 6 -5 1 -5 -13z"/>
<path d="M3642 1135 c0 -16 2 -22 5 -12 2 9 2 23 0 30 -3 6 -5 -1 -5 -18z"/>
<path d="M3575 1000 c4 -6 11 -8 16 -5 14 9 11 15 -7 15 -8 0 -12 -5 -9 -10z"/>
<path d="M3662 968 c2 -6 10 -14 16 -16 7 -2 10 2 6 12 -7 18 -28 22 -22 4z"/>
<path d="M4136 1264 c-3 -9 -6 -26 -6 -38 0 -12 -6 -31 -14 -41 -10 -14 -12
-35 -9 -71 4 -33 1 -54 -6 -58 -6 -4 -8 -18 -5 -32 8 -29 -8 -31 -66 -8 -48
19 -58 14 -42 -21 7 -14 12 -35 12 -45 0 -14 11 -22 39 -30 22 -6 69 -24 104
-41 52 -24 69 -38 83 -67 17 -36 18 -37 25 -12 4 14 7 37 8 53 1 25 3 27 29
20 34 -10 108 -10 147 1 27 7 28 9 12 21 -11 8 -34 11 -60 8 -31 -4 -46 -1
-56 11 -9 11 -30 16 -64 16 l-50 0 8 53 c13 87 10 111 -22 173 -17 32 -34 74
-38 92 -7 35 -19 41 -29 16z m70 -219 c-3 -27 -8 -64 -12 -82 -4 -24 -1 -40
15 -62 12 -16 21 -35 21 -43 -1 -9 -4 -8 -10 4 -6 9 -23 19 -39 23 -16 3 -35
13 -41 21 -7 7 -29 18 -50 24 -35 9 -58 35 -45 48 3 3 26 0 52 -6 25 -7 48
-11 50 -8 3 2 -3 16 -12 30 -12 19 -14 26 -5 26 10 0 11 16 7 62 -3 35 -3 84
0 111 l6 49 34 -74 c30 -62 34 -80 29 -123z m119 -146 c5 -5 -4 -9 -24 -9 -18
0 -40 7 -49 17 -15 15 -14 16 23 9 22 -4 44 -12 50 -17z m48 -16 c-7 -2 -19
-2 -25 0 -7 3 -2 5 12 5 14 0 19 -2 13 -5z"/>
<path d="M4150 1141 c0 -8 5 -31 12 -53 9 -31 9 -44 0 -59 -13 -21 -8 -39 10
-39 6 0 9 3 6 6 -4 3 -2 20 3 37 6 21 5 44 -2 67 -13 39 -29 62 -29 41z"/>
</g>
</svg>
